<svg width="32" height="32" viewBox="0 0 32 32" fill="none" xmlns="http://www.w3.org/2000/svg">
<g id="Blue Icons">
<path id="Icon (Stroke)" fill-rule="evenodd" clip-rule="evenodd" d="M15.9979 0.471252C16.9383 0.471252 17.7006 1.23359 17.7006 2.17399V3.28676C23.2449 4.04157 27.6334 8.43016 28.3882 13.9744H29.5011C30.4415 13.9744 31.2038 14.7368 31.2038 15.6772C31.2038 16.6176 30.4415 17.3799 29.5011 17.3799H28.3882C27.6334 22.9241 23.2448 27.3126 17.7006 28.0674V29.1803C17.7006 30.1207 16.9383 30.8831 15.9979 30.8831C15.0575 30.8831 14.2952 30.1207 14.2952 29.1803V28.0674C8.75096 27.3126 4.36242 22.9241 3.60759 17.3799H2.49473C1.55433 17.3799 0.791992 16.6176 0.791992 15.6772C0.791992 14.7368 1.55433 13.9744 2.49473 13.9744H3.60757C4.36234 8.43015 8.75091 4.04157 14.2952 3.28676V2.17399C14.2952 1.23359 15.0575 0.471252 15.9979 0.471252ZM14.2952 6.73632C10.6349 7.42917 7.74994 10.3141 7.05712 13.9744H7.89599C8.83639 13.9744 9.59873 14.7368 9.59873 15.6772C9.59873 16.6176 8.83639 17.3799 7.89599 17.3799H7.05715C7.75002 21.0401 10.6349 23.925 14.2952 24.6178V23.7791C14.2952 22.8387 15.0575 22.0763 15.9979 22.0763C16.9383 22.0763 17.7006 22.8387 17.7006 23.7791V24.6178C21.3609 23.925 24.2458 21.0401 24.9386 17.3799H24.0998C23.1594 17.3799 22.3971 16.6176 22.3971 15.6772C22.3971 14.7368 23.1594 13.9744 24.0998 13.9744H24.9387C24.2458 10.3141 21.3609 7.42917 17.7006 6.73632V7.57525C17.7006 8.51565 16.9383 9.27799 15.9979 9.27799C15.0575 9.27799 14.2952 8.51565 14.2952 7.57525V6.73632ZM15.9979 13.3289C14.701 13.3289 13.6497 14.3803 13.6497 15.6772C13.6497 16.974 14.701 18.0254 15.9979 18.0254C17.2948 18.0254 18.3461 16.974 18.3461 15.6772C18.3461 14.3803 17.2948 13.3289 15.9979 13.3289ZM10.2442 15.6772C10.2442 12.4995 12.8202 9.92347 15.9979 9.92347C19.1756 9.92347 21.7516 12.4995 21.7516 15.6772C21.7516 18.8548 19.1756 21.4308 15.9979 21.4308C12.8202 21.4308 10.2442 18.8548 10.2442 15.6772Z" fill="#05426E"/>
</g>
</svg>
