<svg width="27" height="27" viewBox="0 0 27 27" fill="none" xmlns="http://www.w3.org/2000/svg">
<g id="Blue Icons">
<path id="Vector (Stroke)" fill-rule="evenodd" clip-rule="evenodd" d="M13.067 3.48161C7.77252 3.48161 3.48046 7.77368 3.48046 13.0682C3.48046 18.3627 7.77252 22.6548 13.067 22.6548C15.6776 22.6548 18.0445 21.6113 19.7733 19.9187C19.7755 19.9165 19.7777 19.9143 19.7799 19.9122C21.5534 18.1724 22.6536 15.7488 22.6536 13.0682C22.6536 7.77368 18.3616 3.48161 13.067 3.48161ZM22.508 20.7911C24.2304 18.688 25.264 15.9988 25.264 13.0682C25.264 6.33203 19.8032 0.871277 13.067 0.871277C6.33087 0.871277 0.870117 6.33203 0.870117 13.0682C0.870117 19.8044 6.33087 25.2651 13.067 25.2651C15.9321 25.2651 18.5664 24.2773 20.648 22.6236L24.6073 26.454C25.1254 26.9552 25.9516 26.9415 26.4528 26.4234C26.954 25.9054 26.9403 25.0791 26.4223 24.5779L22.508 20.7911ZM13.0115 7.5397C13.7323 7.5397 14.3166 8.12405 14.3166 8.84487V11.7075H17.1792C17.9001 11.7075 18.4844 12.2918 18.4844 13.0126C18.4844 13.7335 17.9001 14.3178 17.1792 14.3178H14.3166V17.1804C14.3166 17.9012 13.7323 18.4856 13.0115 18.4856C12.2907 18.4856 11.7063 17.9012 11.7063 17.1804V14.3178H8.84371C8.12289 14.3178 7.53854 13.7335 7.53854 13.0126C7.53854 12.2918 8.12289 11.7075 8.84371 11.7075H11.7063V8.84487C11.7063 8.12405 12.2907 7.5397 13.0115 7.5397Z" fill="#05426E"/>
</g>
</svg>
