<svg width="26" height="27" viewBox="0 0 26 27" fill="none" xmlns="http://www.w3.org/2000/svg">
<g id="Blue Icons">
<path id="Vector (Stroke)" fill-rule="evenodd" clip-rule="evenodd" d="M12.2288 3.72097C7.06494 3.72097 2.87881 7.90711 2.87881 13.071C2.87881 18.2348 7.06494 22.421 12.2288 22.421C14.775 22.421 17.0834 21.4032 18.7696 19.7524C18.7717 19.7502 18.7739 19.7481 18.7761 19.746C20.5058 18.0492 21.5788 15.6854 21.5788 13.071C21.5788 7.90711 17.3927 3.72097 12.2288 3.72097ZM21.695 20.6832C23.3719 18.6006 24.3756 15.953 24.3756 13.071C24.3756 6.36249 18.9373 0.924194 12.2288 0.924194C5.52033 0.924194 0.0820312 6.36249 0.0820312 13.071C0.0820312 19.7794 5.52033 25.2177 12.2288 25.2177C15.0473 25.2177 17.6416 24.2578 19.7025 22.647L23.5404 26.3599C24.0954 26.8969 24.9807 26.8822 25.5177 26.3271C26.0547 25.7721 26.0401 24.8868 25.485 24.3498L21.695 20.6832ZM6.66268 13.0161C6.66268 12.2438 7.28876 11.6177 8.06106 11.6177H16.2869C17.0592 11.6177 17.6853 12.2438 17.6853 13.0161C17.6853 13.7884 17.0592 14.4145 16.2869 14.4145H8.06106C7.28876 14.4145 6.66268 13.7884 6.66268 13.0161Z" fill="#05426E"/>
</g>
</svg>
