<svg width="38" height="37" viewBox="0 0 38 37" fill="none" xmlns="http://www.w3.org/2000/svg">
<g id="Blue Icons">
<path id="Icon (Stroke)" fill-rule="evenodd" clip-rule="evenodd" d="M20.3754 4.59707C18.2754 4.59707 16.5729 6.26183 16.5729 8.31542C16.5729 10.369 18.2754 12.0338 20.3754 12.0338C22.4755 12.0338 24.1779 10.369 24.1779 8.31542C24.1779 6.26183 22.4755 4.59707 20.3754 4.59707ZM12.6811 8.31542C12.6811 4.16001 16.126 0.791382 20.3754 0.791382C24.6249 0.791382 28.0697 4.16001 28.0697 8.31542C28.0697 12.4708 24.6249 15.8395 20.3754 15.8395C16.126 15.8395 12.6811 12.4708 12.6811 8.31542ZM6.12565 27.0519C6.12612 22.8968 9.57083 19.5287 13.8199 19.5287H26.6923C30.942 19.5287 34.3869 22.8977 34.3866 27.0534L34.3861 32.6741C34.386 33.725 33.5147 34.5768 32.44 34.5767C31.3653 34.5767 30.4942 33.7246 30.4942 32.6737L30.4948 27.053C30.4949 24.9993 28.7925 23.3344 26.6923 23.3344H13.8199C11.72 23.3344 10.0177 24.9989 10.0175 27.0523L10.0168 32.6741C10.0167 33.725 9.14538 34.5769 8.07068 34.5767C6.99599 34.5766 6.12488 33.7246 6.125 32.6737L6.12565 27.0519Z" fill="#05426E"/>
</g>
</svg>
